<?xml version="1.0" encoding="UTF-8"?>
<svg xmlns="http://www.w3.org/2000/svg" xmlns:xlink="http://www.w3.org/1999/xlink" width="30px" height="39px" viewBox="0 0 30 38" version="1.1">
<g id="surface1">
<path style="stroke:none;fill-rule:evenodd;fill:rgb(0%,0%,0%);fill-opacity:1;" d="M 27.839844 20.914062 C 30.683594 19.105469 30.683594 17.089844 27.839844 15.492188 L 4.710938 0.679688 C 2.394531 -0.75 -0.0390625 0.09375 0.0234375 3.066406 L 0.117188 32.136719 C 0.316406 35.367188 2.203125 36.25 4.976562 34.753906 L 6.804688 33.652344 C 7.089844 34.011719 7.402344 34.355469 7.734375 34.679688 C 11.734375 38.597656 18.042969 39.128906 22.671875 35.933594 C 27.296875 32.738281 28.898438 26.746094 26.464844 21.742188 Z M 14.03125 26.191406 C 14.109375 26.109375 14.195312 26.027344 14.289062 25.957031 C 14.355469 25.90625 14.421875 25.863281 14.492188 25.820312 L 14.492188 20.972656 C 14.492188 20.683594 14.605469 20.40625 14.8125 20.199219 C 15.132812 19.898438 15.605469 19.8125 16.015625 19.980469 C 16.429688 20.148438 16.699219 20.539062 16.707031 20.972656 L 16.707031 25.820312 C 16.851562 25.90625 16.988281 26.011719 17.109375 26.128906 C 17.234375 26.246094 17.339844 26.382812 17.429688 26.527344 L 20.414062 26.527344 C 20.710938 26.523438 20.992188 26.632812 21.203125 26.835938 C 21.640625 27.261719 21.640625 27.957031 21.203125 28.382812 C 20.992188 28.585938 20.710938 28.695312 20.414062 28.691406 L 17.460938 28.691406 C 17.28125 28.988281 17.023438 29.234375 16.722656 29.410156 C 16.046875 29.804688 15.210938 29.8125 14.53125 29.425781 C 13.851562 29.039062 13.441406 28.324219 13.457031 27.558594 C 13.464844 27.035156 13.667969 26.535156 14.03125 26.148438 Z M 22.859375 20.042969 C 18.039062 15.328125 9.914062 16.660156 7.097656 22.597656 C 5.195312 26.628906 6.378906 31.410156 9.960938 34.140625 C 13.539062 36.867188 18.570312 36.824219 22.097656 34.03125 C 25.625 31.238281 26.71875 26.4375 24.742188 22.441406 C 24.257812 21.539062 23.613281 20.730469 22.84375 20.042969 Z M 22.859375 20.042969"/>
</g>
</svg>
